<?xml version="1.0" encoding="UTF-8"?>
<svg width="124px" height="28px" viewBox="0 0 124 28" version="1.1" xmlns="http://www.w3.org/2000/svg" xmlns:xlink="http://www.w3.org/1999/xlink">
    <!-- Generator: Sketch 54.1 (76490) - https://sketchapp.com -->
    <title>novo-logo copy</title>
    <desc>Created with Sketch.</desc>
    <g id="site" stroke="none" stroke-width="1" fill="none" fill-rule="evenodd">
        <g id="dashboard---aviso" transform="translate(-117.000000, -197.000000)" fill="#D1D4D9" fill-rule="nonzero">
            <path d="M154.520034,216.6 C151.068324,216.6 148.778409,214.460839 148.778409,211.233333 C148.778409,208.024592 151.068324,205.866667 154.520034,205.866667 C157.921231,205.866667 160.227983,208.024592 160.227983,211.233333 C160.227983,214.460839 157.921231,216.6 154.520034,216.6 Z M154.503196,213.222378 C155.732341,213.222378 156.557384,212.434266 156.557384,211.233333 C156.557384,210.032401 155.732341,209.244289 154.503196,209.244289 C153.257213,209.244289 152.415333,210.032401 152.415333,211.233333 C152.415333,212.434266 153.257213,213.222378 154.503196,213.222378 Z M164.859252,207.249229 C165.699773,206.389798 166.926933,205.866667 168.40625,205.866667 L168.236116,208.486883 C168.198164,209.071377 167.799849,209.570498 167.237762,209.737901 C165.696917,210.196801 164.926494,210.731123 164.926494,211.340866 L164.926494,216.366667 L161.396307,216.366667 L161.396307,206.053499 L164.808821,206.053499 L164.859252,207.249229 Z M177.522164,206.052273 L179.855824,206.052273 L179.855824,215.091288 C179.855824,218.395076 177.273724,220.566667 173.349612,220.566667 C171.480987,220.566667 169.8332,220.139773 168.67805,219.323106 L169.068448,217.778045 C169.257879,217.028342 170.020061,216.573935 170.770828,216.763097 C170.794829,216.769144 170.818665,216.775825 170.842312,216.783133 C171.83722,217.09059 172.639012,217.244318 173.247687,217.244318 C174.980412,217.244318 176.152549,216.483333 176.271462,215.314015 C175.591962,216.056439 174.623674,216.483333 173.383587,216.483333 C170.6486,216.483333 168.40625,214.330303 168.40625,211.119318 C168.40625,207.964015 170.6486,205.866667 173.383587,205.866667 C174.691624,205.866667 175.676899,206.330682 176.373387,207.147348 C176.401907,206.534502 176.907784,206.052273 177.522164,206.052273 Z M174.181999,213.142424 C175.439074,213.142424 176.288449,212.362879 176.288449,211.175 C176.288449,209.987121 175.439074,209.207576 174.181999,209.207576 C172.924925,209.207576 172.07555,210.005682 172.07555,211.156439 C172.07555,212.362879 172.924925,213.142424 174.181999,213.142424 Z M185.95926,205.866667 C188.729455,205.866667 190.604403,207.48042 190.604403,209.919814 L190.604403,216.412354 L188.078347,216.412354 C187.574718,216.412354 187.161647,216.013883 187.144246,215.51127 L187.14166,215.436597 C186.482895,216.205944 185.520083,216.6 184.506597,216.6 C182.29382,216.6 180.790483,215.248951 180.790483,213.222378 C180.790483,211.17704 182.597866,209.807226 185.317386,209.807226 C185.84102,209.807226 186.43222,209.86352 187.040312,209.957343 C186.90518,209.281818 186.212632,208.944056 185.030232,208.944056 C184.636075,208.944056 184.158088,209.030532 183.596268,209.203483 C183.197262,209.326315 182.765068,209.169976 182.537412,208.820459 L181.432357,207.123893 C182.665432,206.279487 184.033637,205.866667 185.95926,205.866667 Z M185.536975,213.822844 C186.381546,213.822844 186.989638,213.3162 187.057203,212.471795 C186.601135,212.396737 186.161957,212.359207 185.773455,212.359207 C184.979557,212.359207 184.455923,212.659441 184.455923,213.091026 C184.455923,213.541375 184.77686,213.822844 185.536975,213.822844 Z M198.908633,205.866667 C201.342921,205.866667 202.988636,207.716311 202.988636,210.481435 L202.988636,214.966667 C202.988636,215.739865 202.360945,216.366667 201.586648,216.366667 L199.388634,216.366667 L199.388634,211.041934 C199.388634,209.93962 198.685776,209.229656 197.605775,209.229656 C196.542917,209.229656 195.84006,209.93962 195.84006,211.041934 L195.84006,216.366667 L192.240057,216.366667 L192.240057,206.053499 L195.720059,206.053499 L195.771488,207.099763 C196.594346,206.259015 197.760061,205.866667 198.908633,205.866667 Z M206.043803,205.633333 C204.817063,205.633333 203.923295,204.75098 203.923295,203.533333 C203.923295,202.315686 204.817063,201.433333 206.043803,201.433333 C207.253018,201.433333 208.129261,202.315686 208.129261,203.533333 C208.129261,204.75098 207.253018,205.633333 206.043803,205.633333 Z M204.390625,216.366667 L204.390625,206.1 L207.895597,206.1 L207.895597,216.366667 L204.390625,216.366667 Z M209.06392,216.366667 L209.06392,214.236766 C209.06392,214.003662 209.151272,213.778996 209.308791,213.606963 L213.270305,209.280435 L210.568923,209.280435 C209.794626,209.280435 209.166934,208.653633 209.166934,207.880435 L209.166934,206.1 L218.472487,206.1 L218.487127,208.225122 C218.488752,208.461087 218.400811,208.688909 218.241002,208.862736 L214.283271,213.167633 L218.644176,213.167633 L218.644176,214.966667 C218.644176,215.739865 218.016484,216.366667 217.242187,216.366667 L209.06392,216.366667 Z M219.34517,215.9 L219.34517,214.236766 C219.34517,214.003662 219.432522,213.778996 219.590041,213.606963 L223.551555,209.280435 L220.850173,209.280435 C220.075876,209.280435 219.448184,208.653633 219.448184,207.880435 L219.448184,206.1 L228.289611,206.1 C228.546456,206.1 228.755163,206.306982 228.75693,206.563456 L228.768377,208.225122 C228.770002,208.461087 228.682061,208.688909 228.522252,208.862736 L224.564521,213.167633 L228.925426,213.167633 L228.925426,214.966667 C228.925426,215.739865 228.297734,216.366667 227.523438,216.366667 L219.8125,216.366667 C219.554401,216.366667 219.34517,216.157733 219.34517,215.9 Z M240.375,211.064452 C240.375,211.231327 240.368135,211.437898 240.354406,211.684165 C240.326833,212.178709 239.917204,212.565618 239.421192,212.565618 L233.456762,212.565618 C233.676121,213.166084 234.16546,213.522611 235.127263,213.522611 C235.655215,213.522611 236.143612,213.398951 236.592454,213.151631 L236.592453,213.151629 C236.870817,212.998245 237.208172,212.99668 237.487951,213.147473 L239.750671,214.367016 C238.89011,215.643007 237.219609,216.6 235.177885,216.6 C231.853756,216.6 229.62642,214.535897 229.62642,211.402214 C229.62642,208.09965 231.769387,205.866667 234.992273,205.866667 C238.232034,205.866667 240.375,207.949534 240.375,211.064452 Z M234.992273,208.944056 C234.16546,208.944056 233.692995,209.319347 233.456762,210.051166 L236.59528,210.051166 C236.359047,209.319347 235.852835,208.944056 234.992273,208.944056 Z M117,211.000937 C117,203.267625 123.276441,197 131.020838,197 C138.762121,197 145.039773,203.267625 145.039773,211.000937 C145.039773,218.732375 138.762121,225 131.020838,225 C123.276441,225 117,218.732375 117,211.000937 Z M130.136304,219.027395 L130.274823,220.333333 L131.924977,220.161472 C132.819873,220.06827 133.469081,219.273855 133.375023,218.387097 C138.322228,217.397001 138.8608,212.959862 137.145321,210.938934 C135.536096,209.038622 132.602402,209.175719 130.157073,208.788071 C128.282931,208.490971 128.467153,206.411335 131.56237,206.793996 C133.099428,206.981256 133.674108,207.408046 134.712249,207.778042 C135.050287,207.285215 136.386779,205.171884 136.636244,204.74197 C135.152308,203.803326 133.725968,203.325962 131.791271,203.257402 L131.790653,203.259582 L131.431164,203.259582 C131.292,203.259582 131.110585,203.273955 130.886919,203.302701 L131.731661,202.968313 C131.703108,202.709035 131.659723,202.275153 131.601508,201.666667 L129.837652,201.85037 C129.005552,201.937032 128.4019,202.675701 128.489357,203.500235 C127.47858,203.816632 127.006227,203.987895 126.21216,204.532752 C123.844922,206.151253 123.439821,208.860996 124.739103,210.688388 C126.683936,213.429268 131.701488,212.51881 133.330893,213.355865 C133.673649,213.515514 133.759439,213.886569 133.639625,214.261082 C133.315146,215.479863 128.259712,215.221878 126.704619,214.101302 C126.586045,214.016069 126.400178,213.900662 126.322756,213.812412 C125.709995,214.981559 124.980088,216.138782 124.419152,217.167948 C125.976843,217.91404 127.161428,218.620447 130.037856,218.751357 C130.162956,218.753308 130.295089,218.754284 130.434253,218.754284 C130.573417,218.754284 130.754832,218.739911 130.978498,218.711164 L130.136304,219.027395 Z" id="novo-logo-copy"></path>
        </g>
    </g>
</svg>