<svg width="48" height="25" viewBox="0 0 48 30" fill="none" xmlns="http://www.w3.org/2000/svg">
        <rect width="48" height="30" rx="10" fill="#01261C"/>
        <path d="M29.0001 15.8332H24.8334V19.9998C24.8334 20.4582 24.4584 20.8332 24.0001 20.8332C23.5417 20.8332 23.1667 20.4582 23.1667 19.9998V15.8332H19.0001C18.5417 15.8332 18.1667 15.4582 18.1667 14.9998C18.1667 14.5415 18.5417 14.1665 19.0001 14.1665H23.1667V9.99984C23.1667 9.5415 23.5417 9.1665 24.0001 9.1665C24.4584 9.1665 24.8334 9.5415 24.8334 9.99984V14.1665H29.0001C29.4584 14.1665 29.8334 14.5415 29.8334 14.9998C29.8334 15.4582 29.4584 15.8332 29.0001 15.8332Z" fill="white"/>
        </svg>
