<svg width="19" height="24" viewBox="0 0 19 24" fill="none" xmlns="http://www.w3.org/2000/svg">
        <mask id="mask0_219_3537" style="mask-type:alpha" maskUnits="userSpaceOnUse" x="0" y="14" width="19" height="10">
        <path fill-rule="evenodd" clip-rule="evenodd" d="M0.166748 14.9121H18.6466V23.5151H0.166748V14.9121Z" fill="white"/>
        </mask>
        <g mask="url(#mask0_219_3537)">
        <path fill-rule="evenodd" clip-rule="evenodd" d="M9.40791 16.6621C4.43675 16.6621 1.91675 17.5161 1.91675 19.2019C1.91675 20.9029 4.43675 21.7651 9.40791 21.7651C14.3779 21.7651 16.8967 20.9111 16.8967 19.2253C16.8967 17.5243 14.3779 16.6621 9.40791 16.6621M9.40791 23.5151C7.12241 23.5151 0.166748 23.5151 0.166748 19.2019C0.166748 15.3566 5.44125 14.9121 9.40791 14.9121C11.6934 14.9121 18.6467 14.9121 18.6467 19.2253C18.6467 23.0706 13.3734 23.5151 9.40791 23.5151" fill="#01261C"/>
        </g>
        <mask id="mask1_219_3537" style="mask-type:alpha" maskUnits="userSpaceOnUse" x="3" y="0" width="13" height="13">
        <path fill-rule="evenodd" clip-rule="evenodd" d="M3.21167 0.333496H15.6017V12.7219H3.21167V0.333496Z" fill="white"/>
        </mask>
        <g mask="url(#mask1_219_3537)">
        <path fill-rule="evenodd" clip-rule="evenodd" d="M9.40787 1.99901C6.91004 1.99901 4.87771 4.03017 4.87771 6.52801C4.86954 9.01767 6.88671 11.0477 9.37404 11.057L9.40787 11.89V11.057C11.9045 11.057 13.9357 9.02467 13.9357 6.52801C13.9357 4.03017 11.9045 1.99901 9.40787 1.99901M9.40787 12.7218H9.37054C5.96154 12.7113 3.20004 9.93117 3.21171 6.52451C3.21171 3.11201 5.99071 0.333008 9.40787 0.333008C12.8239 0.333008 15.6017 3.11201 15.6017 6.52801C15.6017 9.94401 12.8239 12.7218 9.40787 12.7218" fill="#01261C"/>
        </g>
        </svg>
