<svg width="23" height="24" viewBox="0 0 23 24" fill="none" xmlns="http://www.w3.org/2000/svg">
        <path fill-rule="evenodd" clip-rule="evenodd" d="M1.875 8.5C1.875 5.13324 4.63324 2.375 8 2.375H15C18.3668 2.375 21.125 5.13324 21.125 8.5V14.625H13.8333C13.3501 14.625 12.9583 15.0168 12.9583 15.5C12.9583 16.3001 12.3001 16.9583 11.5 16.9583C10.6999 16.9583 10.0417 16.3001 10.0417 15.5C10.0417 15.0168 9.6499 14.625 9.16667 14.625H1.875V8.5ZM0.125 15.5C0.125 19.8332 3.66675 23.375 8 23.375H15C19.3332 23.375 22.875 19.8332 22.875 15.5V8.5C22.875 4.16675 19.3332 0.625 15 0.625H8C3.66675 0.625 0.125 4.16675 0.125 8.5V15.5ZM1.93787 16.375H8.41336C8.79598 17.7189 10.0365 18.7083 11.5 18.7083C12.9635 18.7083 14.204 17.7189 14.5867 16.375H21.0621C20.6338 19.3318 18.0698 21.625 15 21.625H8C4.93014 21.625 2.36619 19.3318 1.93787 16.375Z" fill="#01261C"/>
        </svg>
