<svg width="26" height="25" viewBox="0 0 26 25" fill="none" xmlns="http://www.w3.org/2000/svg">
        <path fill-rule="evenodd" clip-rule="evenodd" d="M11.58 11.0808L10.3585 14.9856L14.2622 13.7629L15.4848 9.85809L11.58 11.0808ZM9.02384 17.1941C8.79517 17.1941 8.57117 17.1043 8.40434 16.9386C8.17451 16.7076 8.09051 16.3681 8.18851 16.0589L10.047 10.1218C10.1322 9.84642 10.3468 9.63292 10.6198 9.54776L16.557 7.68926C16.8685 7.59009 17.2068 7.67526 17.4378 7.90509C17.6677 8.13609 17.7517 8.47559 17.6537 8.78476L15.7963 14.7219C15.7112 14.9961 15.4953 15.2108 15.2223 15.2959L9.28517 17.1544C9.19884 17.1813 9.11017 17.1941 9.02384 17.1941V17.1941Z"/>
        <mask id="mask0_219_3443" style="mask-type:alpha" maskUnits="userSpaceOnUse" x="0" y="0" width="26" height="25">
        <path fill-rule="evenodd" clip-rule="evenodd" d="M0.833252 0.333496H25.0087V24.5088H0.833252V0.333496Z" fill="white"/>
        </mask>
        <g mask="url(#mask0_219_3443)">
        <path fill-rule="evenodd" clip-rule="evenodd" d="M12.9208 2.0835C7.22051 2.0835 2.58301 6.72216 2.58301 12.4213C2.58301 18.1217 7.22051 22.7592 12.9208 22.7592C18.6212 22.7592 23.2587 18.1217 23.2587 12.4213C23.2587 6.72216 18.6212 2.0835 12.9208 2.0835M12.9208 24.5092C6.25567 24.5092 0.833008 19.0865 0.833008 12.4213C0.833008 5.75616 6.25567 0.333496 12.9208 0.333496C19.586 0.333496 25.0087 5.75616 25.0087 12.4213C25.0087 19.0865 19.586 24.5092 12.9208 24.5092" />
        </g>
</svg>
